# xmcd CD database file
#
# Track frame offsets:
#	150
#	8583
#	29690
#	55384
#	76724
#	101606
#	117797
#	138538
#	154105
#	172379
#	192621
#	207278
#	224596
#	240513
#	258734
#	279373
#	300073
#	319627
#	337143
#
# Disc length: 4706 seconds
#
# Revision: 0
# Processed by: cddbd v1.5.2PL0 Copyright (c) Steve Scherf et al.
# Submitted via: CDex 1.70beta2
#
DISCID=14126013
DTITLE=Michael Connelly - 9 Dragons Disc 4
DYEAR=2009
DGENRE=Audio Book
TTITLE0=9 Dragons Disc 4-01
TTITLE1=9 Dragons Disc 4-02
TTITLE2=9 Dragons Disc 4-03
TTITLE3=9 Dragons Disc 4-04
TTITLE4=9 Dragons Disc 4-05
TTITLE5=9 Dragons Disc 4-06
TTITLE6=9 Dragons Disc 4-07
TTITLE7=9 Dragons Disc 4-08
TTITLE8=9 Dragons Disc 4-09
TTITLE9=9 Dragons Disc 4-10
TTITLE10=9 Dragons Disc 4-11
TTITLE11=9 Dragons Disc 4-12
TTITLE12=9 Dragons Disc 4-13
TTITLE13=9 Dragons Disc 4-14
TTITLE14=9 Dragons Disc 4-15
TTITLE15=9 Dragons Disc 4-16
TTITLE16=9 Dragons Disc 4-17
TTITLE17=9 Dragons Disc 4-18
TTITLE18=9 Dragons Disc 4-19
EXTD=YEAR: 2009
EXTT0=
EXTT1=
EXTT2=
EXTT3=
EXTT4=
EXTT5=
EXTT6=
EXTT7=
EXTT8=
EXTT9=
EXTT10=
EXTT11=
EXTT12=
EXTT13=
EXTT14=
EXTT15=
EXTT16=
EXTT17=
EXTT18=
PLAYORDER=
